# xmcd CD database file
#
# Track frame offsets:
#	150
#	14856
#	26778
#	43256
#	55012
#	72681
#	92199
#	103661
#	115475
#	134360
#	151768
#	170533
#	181076
#	199241
#	213756
#	227154
#	244786
#	259221
#	276418
#	288616
#
# Disc length: 4102 seconds
#
# Revision: 0
# Processed by: cddbd v1.5.2PL0 Copyright (c) Steve Scherf et al.
# Submitted via: CDex 1.70beta2
#
DISCID=37100414
DTITLE=COMPILATION - Platinum Country CD2
DYEAR=2007
DGENRE=Country
TTITLE0=Rhinestone Cowboy
TTITLE1=Misty Blue
TTITLE2=Lucille
TTITLE3=Don't It Make My Brown Eyes Blue
TTITLE4=Paper Rosie
TTITLE5=Sweet Music Man
TTITLE6=Mammas don't let Your Babies Grow Up to Be Cowboys
TTITLE7=I Cheated on a Good Woman's Love
TTITLE8=She Believes in Me
TTITLE9=An American Dream
TTITLE10=Angel of The Morning
TTITLE11=Louisiana Saturday Night
TTITLE12=Break it To Me Gently
TTITLE13=The Best Year of My Life
TTITLE14=Baby's Got Her Blue Jeans On
TTITLE15=Meet Me in Montana
TTITLE16=Just Another Love
TTITLE17=Heartbeat in The Darkness
TTITLE18=Love Someone Like Me
TTITLE19=Addicted
EXTD=YEAR: 2007
EXTT0=
EXTT1=
EXTT2=
EXTT3=
EXTT4=
EXTT5=
EXTT6=
EXTT7=
EXTT8=
EXTT9=
EXTT10=
EXTT11=
EXTT12=
EXTT13=
EXTT14=
EXTT15=
EXTT16=
EXTT17=
EXTT18=
EXTT19=
PLAYORDER=
